<?xml version="1.0" ?>
<!-- Uploaded to: SVG Repo, www.svgrepo.com, Generator: SVG Repo Mixer Tools -->
<svg width="800px" height="800px" viewBox="0 0 512 512" id="Layer_1" version="1.1" xml:space="preserve" xmlns="http://www.w3.org/2000/svg" xmlns:xlink="http://www.w3.org/1999/xlink">
<style type="text/css">
	.st0{fill:#2B79C2;}
	.st1{fill:#3B4652;}
	.st2{fill:#333333;}
</style>
<g>
<path class="st0" d="M166.2,201.9h205.7V95c0-16.8-13.6-30.4-30.4-30.4H54.8C38,64.6,24.4,78.2,24.4,95v53.2h141.8V201.9z    M294.6,100.5c18,0,32.7,14.6,32.7,32.7s-14.6,32.7-32.7,32.7S262,151.3,262,133.2S276.6,100.5,294.6,100.5z"/>
<path class="st1" d="M406.3,148.2v92c0,18.2-14.8,33-33,33h-28.9c0,17.5-9,32.9-22.6,41.8l12.9,29.7c-12.4,1.2-24.1,6.3-33.5,14.5   l-16.1-37.1c-23-4.4-40.3-24.6-40.3-48.9H93.5c-18.2,0-33-14.8-33-33v-76h89.7v53.7h237.7v-69.7H406.3z"/>
<path class="st1" d="M45.3,186.7h15.2v48H45.3c-13.3,0-24-10.7-24-24c0-6.6,2.7-12.6,7-16.9S38.7,186.7,45.3,186.7z"/>
<path class="st1" d="M490.7,302.2v93.7c-16.2,0-30.5-8.2-38.9-20.8l-52,22.7c-1.3-12.4-6.4-24.1-14.6-33.4l59.9-26.2   C449.9,317.6,468.5,302.2,490.7,302.2z"/>
<path class="st0" d="M369.5,371.3c-7.5-6.6-17.2-10.7-28-11c-0.3,0-0.7,0-1,0c-12.9,0-24.5,5.6-32.5,14.5   c-6.9,7.7-11.1,17.9-11.1,29c0,24.1,19.5,43.6,43.6,43.6c23.8,0,43.1-19.1,43.6-42.7c0-0.3,0-0.6,0-0.9   C384.1,390.9,378.4,379.3,369.5,371.3z"/>
</g>
</svg>